<?xml version="1.0" encoding="UTF-8" standalone="no"?>
<!-- Created with Inkscape (http://www.inkscape.org/) -->

<svg width="100%" height="100%" viewBox="0 0 512 512" version="1.1" id="svg5" xmlns="http://www.w3.org/2000/svg" xmlns:svg="http://www.w3.org/2000/svg">
  <defs id="defs2" />
  <g id="layer1">
    <circle style="fill-rule:evenodd" id="path853" cx="250.42841" cy="344.44714" r="159.81673" />
    <rect style="fill-rule:evenodd;stroke-width:0.849763" id="rect992" width="176.53149" height="64.795189" x="162.16266" y="156.89552" />
    <path style="-inkscape-stroke:none" d="m 385.23633,92.361132 c -0.60103,0.601029 -1.81121,2.157874 -2.41602,2.599805 -2.75646,2.014142 -6.29372,3.22606 -11.95508,3.544922 -11.32271,0.637725 -29.29825,-3.856543 -47.97656,-8.013672 -18.67831,-4.157128 -39.24709,-8.998956 -59.4414,0.779297 -10.09716,4.889127 -18.75767,14.125566 -23.75977,25.755856 -5.0021,11.6303 -7.10938,25.47606 -7.10938,42.66993 h 35.70118 c 0,-14.09408 1.96821,-23.3681 4.20312,-28.56446 2.23492,-5.19635 3.97273,-6.49539 6.52344,-7.73047 5.10142,-2.47015 18.82315,-1.91371 36.12695,1.9375 17.3038,3.85121 37.00187,9.97653 57.73828,8.8086 10.36821,-0.58397 21.45862,-3.38283 31.01172,-10.36328 4.12175,-3.01176 7.80095,-6.72124 10.99368,-11.01815 l -5.26517,-26.885476 z" id="path1419" />
    <path style="fill-rule:evenodd;stroke-width:35.7;stroke-miterlimit:4;stroke-dasharray:none" id="path6857" d="m 193.29143,-16.690902 -56.61015,-16.874361 -14.67649,57.219351 -22.102948,-54.780591 -53.886531,24.2011402 29.04823,-51.4359182 -52.518916,-27.041022 58.325495,-9.35895 -11.603486,-57.920747 43.682476,39.7655 38.0496,-45.18496 -3.85434,58.945714 59.05057,1.576015 -48.48876,33.738607 z" transform="matrix(0.58722929,0.09378659,-0.09378659,0.58722929,354.35838,83.729358)" />
  </g>
</svg>
