<?xml version="1.0" encoding="utf-8"?>
<!-- Generator: Adobe Illustrator 16.0.4, SVG Export Plug-In . SVG Version: 6.00 Build 0)  -->
<!DOCTYPE svg PUBLIC "-//W3C//DTD SVG 1.1//EN" "http://www.w3.org/Graphics/SVG/1.1/DTD/svg11.dtd">
<svg version="1.1" id="Capa_1" xmlns="http://www.w3.org/2000/svg" xmlns:xlink="http://www.w3.org/1999/xlink" x="0px" y="0px" width="100%" height="100%"
	 viewBox="0 0 64 64" enable-background="new 0 0 64 64" xml:space="preserve">
<path d="M45.283,12.327H18.597c-0.864,0-1.566,0.703-1.566,1.565v35.633c-0.001,0.861,0.701,1.564,1.566,1.564h17.268
	c0.545,0,1.152-0.26,1.587-0.641c0.097-0.075,0.196-0.168,0.294-0.297l8.472-11.228c0.365-0.483,0.632-1.272,0.632-1.88V13.892
	C46.85,13.03,46.146,12.327,45.283,12.327z M43.122,40.427l-5.69,7.544v-9.359h7.062L43.122,40.427z M45.282,37.046h-7.851
	c-0.865,0-1.566,0.702-1.566,1.565v10.912H18.597V13.892h26.685V37.046z"/>
</svg>
