<?xml version="1.0" encoding="utf-8"?>
<!-- Generator: Adobe Illustrator 16.0.0, SVG Export Plug-In . SVG Version: 6.00 Build 0)  -->
<!DOCTYPE svg PUBLIC "-//W3C//DTD SVG 1.1//EN" "http://www.w3.org/Graphics/SVG/1.1/DTD/svg11.dtd">
<svg version="1.1" id="Layer_1" xmlns="http://www.w3.org/2000/svg" xmlns:xlink="http://www.w3.org/1999/xlink" x="0px" y="0px" width="100%" height="100%"
	 viewBox="0 0 512 512" enable-background="new 0 0 512 512" xml:space="preserve">
<path d="M0.006,384.003l128,127.984h-128V384.003z M320.257,10.706c-25,24.984-4.719,85.781,45.281,135.766
	c49.969,49.984,110.75,70.234,135.75,45.266c25-25,4.719-85.797-45.25-135.781C406.038,5.972,345.257-14.294,320.257,10.706z
	 M393.444,209.081L161.881,440.628l45.25,45.281l252.875-252.891C439.101,230.737,416.351,222.894,393.444,209.081z
	 M342.913,169.097c-7.813-7.797-14.875-15.797-21.344-23.906L94.006,372.753l45.25,45.25l227.563-227.547
	C358.694,183.956,350.694,176.894,342.913,169.097z M278.976,52.003L26.131,304.878l45.25,45.25l231.563-231.563
	C289.132,95.644,281.257,72.909,278.976,52.003z"/>
</svg>
