<?xml version="1.0" encoding="iso-8859-1"?>
<!-- Generator: Adobe Illustrator 16.0.0, SVG Export Plug-In . SVG Version: 6.00 Build 0)  -->
<!DOCTYPE svg PUBLIC "-//W3C//DTD SVG 1.1//EN" "http://www.w3.org/Graphics/SVG/1.1/DTD/svg11.dtd">
<svg version="1.1" xmlns="http://www.w3.org/2000/svg" xmlns:xlink="http://www.w3.org/1999/xlink" x="0px" y="0px"
	 width="100%" height="100%" viewBox="0 0 474.138 474.138"
	 xml:space="preserve">
		<path d="M332.466,243.935l19.841-97.812l3.263-16.077l-16.399-0.487c-8.824-0.26-17.38-0.395-25.432-0.395
			c-92.442,0-127.855,17.142-152.589,42.883c-27.531,28.785-46.745,75.114-46.745,112.685c0,41.812,36.215,72.16,86.114,72.16
			c32.693,0,51.39-8.928,72.345-23.059c18.366,14.816,33.66,23.059,66.674,23.059c44.107,0,80.438-20.088,105.065-58.094
			c18.495-28.541,29.535-67.25,29.535-103.553c0-78.425-41.258-124.573-75.869-149.478C359.471,17.851,306.634,1.183,256.93,1.183
			c-99.872,0-160.442,48.883-193.667,89.891C23.06,140.694,0,207.026,0,273.06c0,63.977,24.844,116.842,71.846,152.879
			c39.544,30.32,92.583,47.016,149.343,47.016c69.272,0,139.111-17.826,201.966-51.561l11.521-6.182l-5.532-11.844l-19.085-40.863
			l-6.145-13.156l-12.837,6.781c-47.528,25.107-100.527,48.346-165.944,48.346c-43.14,0-79.098-12.035-103.979-34.803
			c-24.802-22.689-37.911-55.65-37.911-95.32c0-134.384,84.967-204.696,168.896-204.696c41.283,0,76.243,12.28,101.1,35.508
			c24.611,23.002,37.62,55.27,37.62,93.321c0,14.428-3.122,38.323-11.916,58.184c-9.327,21.059-22.313,31.738-38.596,31.738
			c-9.489,0-13.186-3.4-13.186-12.127c0-5.516,2.641-18.836,4.22-26.797C331.796,247.394,332.169,245.505,332.466,243.935z
			 M259.436,200.955c-17.49,72.175-39.479,87.458-54.942,87.458c-2.222,0-6.845,0-6.845-6.928c0-20.631,14.186-51.409,31.628-68.615
			C236.171,205.986,247.419,202.999,259.436,200.955z"/>
</svg>
