<?xml version="1.0" encoding="iso-8859-1"?>
<!-- Generator: Adobe Illustrator 16.0.4, SVG Export Plug-In . SVG Version: 6.00 Build 0)  -->
<!DOCTYPE svg PUBLIC "-//W3C//DTD SVG 1.1//EN" "http://www.w3.org/Graphics/SVG/1.1/DTD/svg11.dtd">
<svg version="1.1" id="Capa_1" xmlns="http://www.w3.org/2000/svg" xmlns:xlink="http://www.w3.org/1999/xlink" x="0px" y="0px" width="100%" height="100%"
	 viewBox="0 0 87.606 84.869" style="enable-background:new 0 0 87.606 84.869;"
	 xml:space="preserve">
<g id="Settings_1_">
	<g>
		<path d="M87.606,30.746c0-4.868-3.116-9.007-7.425-10.483c0.148-0.407,0.241-0.842,0.241-1.302V3.771
			C80.423,1.69,78.762,0,76.714,0s-3.708,1.69-3.708,3.771v15.19c0,0.46,0.093,0.895,0.241,1.302
			c-4.311,1.476-7.428,5.614-7.428,10.483c0,4.987,3.273,9.216,7.753,10.59c-0.353,0.577-0.566,1.252-0.566,1.981v37.787
			c0,2.08,1.66,3.765,3.708,3.765s3.708-1.685,3.708-3.765V43.317c0-0.729-0.213-1.404-0.567-1.982
			C84.334,39.961,87.606,35.733,87.606,30.746z M76.714,38.04c-3.962,0-7.187-3.273-7.187-7.294c0-4.026,3.224-7.299,7.187-7.299
			s7.184,3.272,7.184,7.299C83.898,34.767,80.677,38.04,76.714,38.04z M47.269,39.095c0.149-0.409,0.243-0.846,0.243-1.307V3.771
			c0-2.08-1.66-3.771-3.708-3.771c-2.048,0-3.708,1.69-3.708,3.771v34.018c0,0.461,0.093,0.897,0.243,1.307
			c-4.31,1.476-7.426,5.613-7.426,10.479c0,4.991,3.272,9.219,7.75,10.594c-0.353,0.578-0.566,1.253-0.566,1.982v18.955
			c0,2.08,1.66,3.765,3.708,3.765c2.048,0,3.708-1.685,3.708-3.765V62.149c0-0.729-0.213-1.404-0.567-1.982
			c4.478-1.374,7.751-5.603,7.751-10.594C54.695,44.708,51.578,40.57,47.269,39.095z M43.803,56.872
			c-3.962,0-7.184-3.272-7.184-7.299c0-4.021,3.222-7.293,7.184-7.293c3.962,0,7.184,3.271,7.184,7.293
			C50.987,53.6,47.765,56.872,43.803,56.872z M14.361,20.264c0.149-0.407,0.242-0.843,0.242-1.303V3.771
			C14.603,1.69,12.94,0,10.892,0C8.844,0,7.187,1.69,7.187,3.771v15.19c0,0.459,0.093,0.894,0.241,1.301
			C3.117,21.738,0,25.877,0,30.746c0,4.987,3.273,9.216,7.752,10.59c-0.353,0.577-0.565,1.252-0.565,1.981v37.787
			c0,2.08,1.657,3.765,3.705,3.765c2.048,0,3.711-1.685,3.711-3.765V43.317c0-0.729-0.214-1.405-0.567-1.982
			c4.478-1.375,7.749-5.603,7.749-10.589C21.784,25.878,18.67,21.74,14.361,20.264z M10.892,38.04c-3.962,0-7.184-3.273-7.184-7.294
			c0-4.026,3.222-7.299,7.184-7.299c3.962,0,7.187,3.272,7.187,7.299C18.078,34.767,14.854,38.04,10.892,38.04z"/>
	</g>
</g>
</svg>
