<?xml version="1.0" encoding="UTF-8" standalone="no"?>
<!-- Generator: Adobe Illustrator 16.0.0, SVG Export Plug-In . SVG Version: 6.00 Build 0)  -->


<svg
   xmlns:osb="http://www.openswatchbook.org/uri/2009/osb"
   xmlns:dc="http://purl.org/dc/elements/1.1/"
   xmlns:cc="http://creativecommons.org/ns#"
   xmlns:rdf="http://www.w3.org/1999/02/22-rdf-syntax-ns#"
   xmlns:svg="http://www.w3.org/2000/svg"
   xmlns="http://www.w3.org/2000/svg"
   xmlns:sodipodi="http://sodipodi.sourceforge.net/DTD/sodipodi-0.dtd"
   xmlns:inkscape="http://www.inkscape.org/namespaces/inkscape"
   version="1.1"
   id="Capa_1"
   x="0px"
   y="0px"
   width="100%"
   height="100%"
   viewBox="0 0 512 512"
   enable-background="new 0 0 512 512"
   xml:space="preserve"
>

<g
   id="g3004">
	
<path
   d="M238.805,111.805H49.697c-9.599,0-10.079,5.432-9.558,12.07l8.604,109.187c0.521,6.64,1.875,12.072,11.459,12.072h168.094   c9.775,0,10.934-5.433,11.455-12.07l8.604-109.187C248.88,117.236,248.403,111.805,238.805,111.805z M231.865,85.139   c-1.157-5.333-6.828-9.697-12.608-9.697h-71.04c-5.778,0-13.855-3.849-17.946-8.552l-6.211-7.134   c-4.092-4.705-12.168-8.555-17.946-8.555H72.173c-5.778,0-11.028,5.42-11.664,12.048l-3.046,31.587h176.503L231.865,85.139z"
   id="path3006" />

</g>



<g
   id="g3012">
	
<path
   d="M458.139,329.805H269.03c-9.599,0-10.078,5.432-9.557,12.07l8.604,109.186c0.521,6.641,1.875,12.072,11.46,12.072h168.095   c9.774,0,10.934-5.432,11.455-12.068l8.604-109.188C468.213,335.236,467.737,329.805,458.139,329.805z M451.198,303.139   c-1.156-5.332-6.828-9.697-12.607-9.697h-71.039c-5.778,0-13.855-3.849-17.946-8.552l-6.212-7.134   c-4.092-4.705-12.168-8.555-17.945-8.555h-33.941c-5.777,0-11.027,5.42-11.663,12.047l-3.046,31.588h176.502L451.198,303.139z"
   id="path3014" />

</g>

<rect
   style="fill-opacity:1;fill-rule:nonzero;stroke-width:10;stroke-linecap:butt;stroke-linejoin:miter;stroke-miterlimit:4;stroke-opacity:1;stroke-dasharray:none;stroke-dashoffset:0;marker:none;visibility:visible;display:inline;overflow:visible;enable-background:accumulate"
   id="rect5244"
   width="134.89374"
   height="11.179039"
   x="69.595978"
   y="375.06033"
   transform="matrix(0.70710678,-0.70710678,0.70710678,0.70710678,0,0)" />
<rect
   style="fill-opacity:1;fill-rule:nonzero;stroke-width:10;stroke-linecap:butt;stroke-linejoin:miter;stroke-miterlimit:4;stroke-opacity:1;stroke-dasharray:none;stroke-dashoffset:0;marker:none;visibility:visible;display:inline;overflow:visible;enable-background:accumulate"
   id="rect5244-5"
   width="134.89374"
   height="11.179039"
   x="-447.40302"
   y="130.8996"
   transform="matrix(-0.70710678,-0.70710678,0.70710678,-0.70710678,0,0)" />
</svg>