<?xml version="1.0" encoding="utf-8"?>
<!-- Generator: Adobe Illustrator 16.0.0, SVG Export Plug-In . SVG Version: 6.00 Build 0)  -->
<!DOCTYPE svg PUBLIC "-//W3C//DTD SVG 1.1//EN" "http://www.w3.org/Graphics/SVG/1.1/DTD/svg11.dtd">
<svg version="1.1" id="Capa_1" xmlns="http://www.w3.org/2000/svg" xmlns:xlink="http://www.w3.org/1999/xlink" x="0px" y="0px"
	 width="100%" height="100%" viewBox="0 0 512 512" enable-background="new 0 0 512 512" xml:space="preserve">
<g>
	<path d="M486.277,146.513H72.232c-21.017,0-22.067,10.157-20.926,22.567l18.839,204.149c1.142,12.414,4.104,22.571,25.089,22.571
		H463.27c21.4,0,23.938-10.157,25.08-22.567l18.84-204.148C508.335,156.67,507.289,146.513,486.277,146.513z M471.08,96.655
		c-2.534-9.971-14.951-18.13-27.605-18.13H287.937c-12.649,0-30.334-7.197-39.291-15.99l-13.599-13.339
		c-8.961-8.798-26.642-15.995-39.292-15.995h-74.313c-12.649,0-24.145,10.135-25.537,22.526l-6.669,59.059h386.445L471.08,96.655z"
		/>
</g>
<g>
	<path stroke="#FFFFFF" stroke-width="5" stroke-miterlimit="10" d="M488.197,179.2H23.813c-23.572,0-24.75,11.474-23.47,25.492
		l21.13,230.61c1.28,14.023,4.604,25.497,28.14,25.497h412.779c24.003,0,26.85-11.474,28.13-25.492l21.13-230.61
		C512.937,190.674,511.764,179.2,488.197,179.2z M471.153,122.88c-2.842-11.264-16.769-20.48-30.961-20.48H265.743
		c-14.188,0-34.022-8.13-44.068-18.063l-15.252-15.068C196.372,59.331,176.542,51.2,162.355,51.2H79.007
		c-14.188,0-27.08,11.448-28.642,25.446l-7.48,66.713h433.429L471.153,122.88z"/>
</g>
</svg>
