<?xml version="1.0" encoding="utf-8"?>
<!-- Generator: Adobe Illustrator 16.0.4, SVG Export Plug-In . SVG Version: 6.00 Build 0)  -->
<!DOCTYPE svg PUBLIC "-//W3C//DTD SVG 1.1//EN" "http://www.w3.org/Graphics/SVG/1.1/DTD/svg11.dtd">
<svg version="1.1" id="Layer_1" xmlns="http://www.w3.org/2000/svg" xmlns:xlink="http://www.w3.org/1999/xlink" x="0px" y="0px" width="100%" height="100%"
	viewBox="0 0 31.273 28.055" enable-background="new 0 0 31.273 28.055" xml:space="preserve">
<path d="M21.479,7.09H9.93l-0.95,4.307h13.448L21.479,7.09z M14.376,10.803l0.192-0.878h2.269l0.192,0.878H14.376z M21.449,4.175V0
	h-4.334h-2.821H9.96v4.175v2.644h11.489V4.175z M20.631,6.135h-9.854V0.817h3.69h2.473h3.691V6.135z M0.95,23.748L0,28.054h13.448
	l-0.95-4.307H0.95z M5.397,27.461l0.193-0.877h2.268l0.193,0.877H5.397z M12.469,20.832v-4.174H8.135H5.314H0.98v4.174v2.645h11.489
	V20.832z M1.797,22.794v-5.318h3.689h2.475h3.688v5.318H1.797z M30.324,23.748h-11.55l-0.949,4.307h13.448L30.324,23.748z
	 M23.222,27.461l0.193-0.877h2.269l0.193,0.877H23.222z M18.806,20.832v2.645h11.487v-2.645v-4.174H25.96h-2.821h-4.333V20.832z
	 M19.623,17.475h3.688h2.475h3.689v5.318h-9.853V17.475z M17.927,19.975l-0.415-0.471l0.471-0.416l0.415,0.472L17.927,19.975z
	 M16.572,17.489l0.707,0.8l-0.472,0.417L16.1,17.905L16.572,17.489z M13.157,19.089l0.472,0.416l-0.416,0.472l-0.472-0.416
	L13.157,19.089z M14.57,17.488l0.472,0.416l-0.706,0.8l-0.472-0.416L14.57,17.488z M15.256,13.718h0.627v1.067h-0.627V13.718z
	 M15.256,15.853h0.628v0.979v0.118l-0.136,0.154l-0.179-0.155l-0.177,0.155l-0.137-0.154v-0.118V15.853z M15.883,12.65h-0.627
	v-0.628h0.627V12.65z"/>
</svg>
