<?xml version="1.0" encoding="iso-8859-1"?>
<!-- Generator: Adobe Illustrator 16.0.0, SVG Export Plug-In . SVG Version: 6.00 Build 0)  -->
<!DOCTYPE svg PUBLIC "-//W3C//DTD SVG 1.1//EN" "http://www.w3.org/Graphics/SVG/1.1/DTD/svg11.dtd">
<svg xmlns="http://www.w3.org/2000/svg" xmlns:xlink="http://www.w3.org/1999/xlink" version="1.1" id="Capa_1" x="0px" y="0px" width="100%" height="100%" viewBox="0 0 23.5 23.5" style="enable-background:new 0 0 23.5 23.5;" xml:space="preserve">
<g>
	<g>
		<rect x="2.5" y="9.281" width="1" height="2" />
		<rect x="10.578" y="2.5" width="2" height="1" />
		<rect x="10.141" y="17.5" width="2" height="1" />
		<rect x="13.141" y="17.5" width="2" height="1" />
		<rect x="2.5" y="6.281" width="1" height="2" />
		<path d="M5,3.5h1.578v-1H5c-0.177,0-0.354,0.019-0.525,0.057l0.213,0.977C4.789,3.512,4.895,3.5,5,3.5z" />
		<rect x="7.578" y="2.5" width="2" height="1" />
		<path d="M3.5,5c0-0.434,0.19-0.848,0.523-1.136L3.369,3.108C2.816,3.586,2.5,4.275,2.5,5v0.281h1V5z" />
		<rect x="13.578" y="2.5" width="2" height="1" />
		<rect x="16.578" y="2.5" width="2" height="1" />
		<rect x="22.5" y="9.438" width="1" height="2" />
		<rect x="22.5" y="6.438" width="1" height="2" />
		<rect x="22.5" y="12.438" width="1" height="2" />
		<rect x="16.141" y="17.5" width="2" height="1" />
		<path d="M22.773,3.241l-0.711,0.705C22.346,4.229,22.5,4.604,22.5,5v0.438h1V5C23.5,4.339,23.242,3.714,22.773,3.241z" />
		<path d="M19.578,2.5v1H21c0.145,0,0.288,0.021,0.427,0.063l0.285-0.959C21.48,2.535,21.241,2.5,21,2.5H19.578z" />
		<path d="M19.141,17.5v1H21c0.059,0,0.113-0.002,0.172-0.006l-0.062-0.998L19.141,17.5z" />
		<path d="M22.5,16c0,0.511-0.259,0.982-0.691,1.262l0.541,0.84c0.721-0.463,1.15-1.25,1.15-2.102v-0.562h-1V16z" />
		<path d="M8,13.5H3.5v-1.219h-1V13.5H2c-1.1,0-2,0.9-2,2V19c0,1.1,0.9,2,2,2h6c1.1,0,2-0.9,2-2v-3.5C10,14.4,9.1,13.5,8,13.5z" />
	</g>
</g></svg>
