<?xml version="1.0" encoding="UTF-8" standalone="no"?>
<!-- Generator: Adobe Illustrator 16.0.0, SVG Export Plug-In . SVG Version: 6.00 Build 0)  -->

<svg
   xmlns:dc="http://purl.org/dc/elements/1.1/"
   xmlns:cc="http://creativecommons.org/ns#"
   xmlns:rdf="http://www.w3.org/1999/02/22-rdf-syntax-ns#"
   xmlns:svg="http://www.w3.org/2000/svg"
   xmlns="http://www.w3.org/2000/svg"
   xmlns:sodipodi="http://sodipodi.sourceforge.net/DTD/sodipodi-0.dtd"
   xmlns:inkscape="http://www.inkscape.org/namespaces/inkscape"
   version="1.1"
   id="Capa_1"
   x="0px"
   y="0px"
   width="100%"
   height="100%"
   viewBox="0 0 413.601 413.601"
>	<path
   d="M395.442,368.206h18.158v45.395h-45.396v-18.158h27.237V368.206z M109.958,413.601h64.563v-18.158h-64.563V413.601z    M239.079,413.601h64.563v-18.158h-64.563V413.601z M18.158,368.206H0v45.395h45.395v-18.158H18.158V368.206z M18.158,239.079H0   v64.562h18.158V239.079z M18.158,109.958H0v64.563h18.158V109.958z M0,45.395h18.158V18.158h27.237V0H0V45.395z M174.521,0h-64.563   v18.158h64.563V0z M239.079,18.158h64.563V0h-64.563V18.158z M368.205,0v18.158h27.237v27.237h18.158V0H368.205z M395.442,303.642   h18.158v-64.562h-18.158V303.642z M395.442,174.521h18.158v-64.563h-18.158V174.521z"
    />
<path
    d="m 258.94751,319.23094 0,-8.01314 57.32473,0 57.32473,0 0,8.01314 0,8.01313 -57.32473,0 -57.32473,0 0,-8.01313 z"
  /><rect
 width="18.491848"
   height="106.01993"
   x="307.58105"
   y="268.13177" /></svg>