<?xml version="1.0" encoding="iso-8859-1"?>
<!-- Generator: Adobe Illustrator 17.1.0, SVG Export Plug-In . SVG Version: 6.00 Build 0)  -->
<!DOCTYPE svg PUBLIC "-//W3C//DTD SVG 1.1//EN" "http://www.w3.org/Graphics/SVG/1.1/DTD/svg11.dtd">
<svg version="1.1" id="Capa_1" xmlns="http://www.w3.org/2000/svg" xmlns:xlink="http://www.w3.org/1999/xlink" width="100%" height="100%"
	 viewBox="0 0 208.204 208.204" style="enable-background:new 0 0 208.204 208.204;" xml:space="preserve">
<path d="M83.536,208.204c-0.001,0-0.001,0-0.001,0c-4.229,0-8.409-0.68-12.425-2.021c-12.261-4.094-29.286-12.973-40.765-32.028
	C9.018,138.758,0.998,86.08,0.92,85.552c-0.136-0.911,0.368-1.796,1.22-2.145c23.929-9.8,48.852-17.602,74.103-23.198
	C84.545,29.028,98.881,1.354,99.026,1.074c0.426-0.816,1.358-1.234,2.248-1.018c36.468,8.91,71.785,22.332,104.967,39.892
	c0.813,0.431,1.229,1.361,1.004,2.254c-0.129,0.518-13.267,52.157-37.955,85.297c-9.42,12.645-22.084,21.476-37.659,26.263
	c-2.078,18.565-10.966,32.37-18.521,41.015C105.653,203.31,94.873,208.204,83.536,208.204z M5.125,86.51
	c1.489,8.905,9.77,54.251,28.645,85.58c10.851,18.011,26.983,26.417,38.606,30.298c3.607,1.204,7.361,1.815,11.157,1.815
	c0,0,0.002,0,0.002,0c10.184,0,19.865-4.395,26.563-12.059c8.063-9.227,17.728-24.639,17.979-45.664
	c0.439-36.894-15.276-79.747-18.566-88.298c-1.94,0.285-3.879,0.585-5.815,0.895c-0.055,0.008-0.109,0.015-0.163,0.019
	c-8.373,1.343-16.866,2.955-25.247,4.791c-0.116,0.025-0.232,0.04-0.348,0.045C53.142,69.378,28.656,76.971,5.125,86.51z
	 M130.558,122.328c1.176,8.683,1.727,16.804,1.639,24.197c-0.012,0.937-0.045,1.888-0.102,2.891
	c13.995-4.638,25.42-12.805,33.988-24.306c21.861-29.345,34.532-73.652,36.884-82.366c-32.015-16.797-66.013-29.718-101.102-38.422
	C98.965,10.132,87.81,33.27,80.645,59.257c6.833-1.443,13.754-2.739,20.639-3.865c0.02-1.677,0.335-3.348,0.932-4.918
	c0.08-0.209,0.171-0.413,0.264-0.614l0.074-0.164c0.306-0.681,0.964-1.135,1.709-1.178l21.811-1.267
	c0.76-0.042,1.452,0.332,1.834,0.972c2.261,3.791,2.662,8.323,1.1,12.433c-1.817,4.781-6.099,8.204-11.056,9.035
	c2.305,6.981,5.05,16.047,7.521,26.2c4.684,1.907,8.723,5.486,12.631,11.175c1.138,1.656,2.166,3.433,3.058,5.28
	c5.907,12.261,4.417,21.206,4.351,21.581c-0.144,0.811-0.771,1.451-1.578,1.612c-0.808,0.16-1.631-0.19-2.076-0.883
	c-0.046-0.071-4.666-7.221-11.169-12.229C130.644,122.394,130.601,122.361,130.558,122.328z M129.744,116.839
	c1.18,0.784,2.315,1.595,3.385,2.419c3.416,2.631,6.309,5.737,8.408,8.28c-0.363-3.385-1.383-8.066-3.979-13.456
	c-0.803-1.664-1.729-3.263-2.751-4.752c-2.634-3.834-5.281-6.559-8.141-8.347C127.89,106.426,128.922,111.741,129.744,116.839z
	 M111.529,54.054c0.558,0.177,1.03,0.59,1.258,1.155c0.07,0.174,1.636,4.077,3.882,10.621c3.838-0.4,7.214-2.95,8.601-6.596
	c0.984-2.592,0.885-5.418-0.249-7.917l-19.255,1.119c-0.242,0.759-0.394,1.532-0.455,2.315c1.73-0.267,3.461-0.524,5.196-0.771
	c0.094-0.013,0.187-0.02,0.279-0.02C111.046,53.944,111.295,53.978,111.529,54.054z M79.613,180.085
	c-4.121,0-8.605-0.879-13.709-2.687c-2.26-0.801-4.497-1.793-6.648-2.95c-14.295-7.688-19.11-17.327-19.308-17.734
	c-0.36-0.74-0.229-1.626,0.329-2.231c0.558-0.605,1.431-0.806,2.199-0.506c0.096,0.037,9.702,3.75,19.639,4.028
	c9.996,0.277,18-1.854,18.075-1.875c0.078-0.021,8.068-2.235,16.538-7.525c8.432-5.266,14.841-13.328,14.904-13.409
	c0.512-0.647,1.365-0.914,2.153-0.675c0.788,0.24,1.349,0.938,1.412,1.759c0.035,0.451,0.757,11.202-7.686,25.064
	c-1.271,2.086-2.699,4.074-4.243,5.908C95.793,176.127,88.497,180.085,79.613,180.085z M46.787,159.562
	c2.7,3.195,7.268,7.546,14.364,11.363c1.972,1.06,4.021,1.969,6.089,2.702c4.668,1.654,8.715,2.458,12.374,2.458
	c7.597,0,13.949-3.519,20.595-11.41c1.414-1.678,2.721-3.499,3.886-5.412c4.192-6.882,5.93-12.945,6.644-17.067
	c-2.851,2.933-7.019,6.757-11.893,9.801c-8.995,5.618-17.262,7.899-17.61,7.993c-0.327,0.088-8.633,2.31-19.233,2.012
	C56.258,161.842,50.729,160.651,46.787,159.562z M40.179,132.538c-0.349,0-0.698-0.091-1.011-0.274
	c-3.261-1.91-5.601-4.966-6.589-8.605c-2.07-7.626,2.449-15.515,10.075-17.586c1.231-0.334,2.498-0.504,3.763-0.504
	c6.447,0,12.131,4.35,13.823,10.579c0.052,0.191,0.092,0.383,0.13,0.575l0.036,0.174c0.167,0.775-0.14,1.576-0.783,2.041
	l-18.271,13.22C41.003,132.411,40.591,132.538,40.179,132.538z M46.416,109.57c-0.912,0-1.825,0.123-2.715,0.364
	c-5.497,1.493-8.755,7.18-7.262,12.677c0.601,2.21,1.893,4.122,3.692,5.493l16.033-11.601
	C54.729,112.386,50.819,109.57,46.416,109.57z M101.759,115.817c-0.064,0-0.128-0.003-0.192-0.009l-22.448-2.163
	c-0.79-0.076-1.46-0.612-1.708-1.366l-0.059-0.173c-0.063-0.182-0.125-0.365-0.176-0.553c-2.071-7.628,2.449-15.517,10.074-17.588
	c1.231-0.334,2.497-0.504,3.763-0.504c6.447,0,12.131,4.35,13.823,10.579c0.988,3.64,0.515,7.46-1.332,10.756
	C103.147,115.429,102.477,115.817,101.759,115.817z M80.869,109.795l19.699,1.898c0.858-2.092,1.006-4.396,0.406-6.606
	c-1.219-4.49-5.316-7.626-9.962-7.626c-0.912,0-1.825,0.123-2.715,0.364C83.035,99.253,79.825,104.524,80.869,109.795z
	 M158.655,86.258c-1.738,0-3.45-0.315-5.089-0.938c-3.578-1.36-6.412-4.032-7.981-7.523c-1.568-3.492-1.683-7.385-0.322-10.963
	c1.562-4.11,4.871-7.232,9.079-8.565c0.711-0.225,1.488-0.037,2.017,0.491l15.464,15.433c0.526,0.525,0.718,1.299,0.497,2.009
	l-0.048,0.156c-0.066,0.218-0.134,0.436-0.216,0.652C169.952,82.543,164.568,86.258,158.655,86.258z M154.444,62.5
	c-2.507,1.115-4.458,3.162-5.443,5.753c-0.98,2.58-0.897,5.386,0.233,7.903s3.174,4.443,5.754,5.423
	c1.182,0.45,2.416,0.677,3.667,0.677c4.07,0,7.794-2.442,9.44-6.133L154.444,62.5z"/>
<g>
</g>
<g>
</g>
<g>
</g>
<g>
</g>
<g>
</g>
<g>
</g>
<g>
</g>
<g>
</g>
<g>
</g>
<g>
</g>
<g>
</g>
<g>
</g>
<g>
</g>
<g>
</g>
<g>
</g>
</svg>
