<?xml version="1.0" encoding="utf-8"?>
<!-- Generator: Adobe Illustrator 17.1.0, SVG Export Plug-In . SVG Version: 6.00 Build 0)  -->
<!DOCTYPE svg PUBLIC "-//W3C//DTD SVG 1.1//EN" "http://www.w3.org/Graphics/SVG/1.1/DTD/svg11.dtd">
<svg version="1.1" id="Capa_1" xmlns="http://www.w3.org/2000/svg" xmlns:xlink="http://www.w3.org/1999/xlink" width="100%" height="100%"
 viewBox="0 0 1000 1000" enable-background="new 0 0 1000 1000" xml:space="preserve">
<path d="M451.5,723.1c0-49.4,15.5-95.3,41.9-133H227.7c-13.8,0-25-11.2-25-25s11.2-25,25-25h313.1c39.5-31,89.3-49.5,143.3-49.5
	c18.7,0,36.9,2.2,54.4,6.4V101.1c0-29.2-23.7-52.9-52.9-52.9H401.9l-94.3,0v17.5c0.2,1.8,0.3,3.7,0.3,5.6v144.9
	c0,41.1-33.4,74.5-74.5,74.5H88.5c-1.5,0-3.1-0.1-4.6-0.2H65.4v554c0,29.2,23.7,52.9,52.9,52.9h283.6h128.4
	C482.1,854.7,451.5,792.4,451.5,723.1z M227.7,404.5h369.9c13.8,0,25,11.2,25,25s-11.2,25-25,25H227.7c-13.8,0-25-11.2-25-25
	S213.9,404.5,227.7,404.5z M412.6,717.6h-185c-13.8,0-25-11.2-25-25s11.2-25,25-25h185c13.8,0,25,11.2,25,25
	S426.4,717.6,412.6,717.6z"/>
<path d="M88.5,260.7h144.9c24.6,0,44.5-19.9,44.5-44.5V71.3c0-13.4-11-22.3-22.4-22.3c-5.5,0-11,2-15.6,6.6L72.7,222.7
	C58.7,236.7,68.6,260.7,88.5,260.7z"/>
<path d="M872.8,858.8L862,848l-10.8-10.8c22.3-32.5,35.3-71.8,35.3-114.2c0-81.6-48.5-152-118.1-184.1c-4.9-2.3-9.9-4.3-15-6.2
	c-4.9-1.8-9.9-3.4-15-4.8c-17.3-4.8-35.5-7.4-54.4-7.4c-31,0-60.4,7-86.6,19.5c-25.3,12-47.7,29.1-65.9,50
	c-31.1,35.6-49.9,82.1-49.9,133c0,74.1,40,139,99.5,174.3c9.8,5.8,20.2,10.9,31.1,15c22.4,8.5,46.6,13.2,72,13.2
	c8.3,0,16.4-0.5,24.4-1.5c33-4,63.5-15.9,89.7-33.9L809,901l10.7,10.7l65.7,65.7c7.3,7.3,16.9,11,26.5,11s19.2-3.7,26.5-11
	c14.6-14.6,14.6-38.4,0-53L872.8,858.8z M684.1,595.6c19.4,0,37.9,4.4,54.4,12.2c5.2,2.5,10.2,5.3,15,8.4c5.3,3.4,10.3,7.3,15,11.4
	c26.4,23.4,43.1,57.5,43.1,95.5s-16.7,72.1-43.1,95.5c-4.7,4.2-9.7,8-15,11.4c-4.8,3.1-9.8,5.9-15,8.4
	c-16.5,7.8-34.9,12.2-54.4,12.2c-70.3,0-127.5-57.2-127.5-127.5S613.7,595.6,684.1,595.6z"/>
</svg>
