<?xml version="1.0" encoding="iso-8859-1"?>
<!-- Generator: Adobe Illustrator 16.0.0, SVG Export Plug-In . SVG Version: 6.00 Build 0)  -->
<!DOCTYPE svg PUBLIC "-//W3C//DTD SVG 1.1//EN" "http://www.w3.org/Graphics/SVG/1.1/DTD/svg11.dtd">
<svg version="1.1" id="Layer_1" xmlns="http://www.w3.org/2000/svg" xmlns:xlink="http://www.w3.org/1999/xlink" viewBox="0 0 256 256" style="enable-background:new 0 0 256 256;" width="100%" height="100%" xml:space="preserve">
<path d="M190.729,77.313l-21.384-62.146c-0.325-0.946-1.216-1.581-2.216-1.581H88.872c-1,0-1.892,0.635-2.217,1.581L65.271,77.313
	c-0.119,0.344-0.156,0.71-0.108,1.069l21.385,161.995c0.153,1.166,1.148,2.037,2.324,2.037h78.256c1.176,0,2.17-0.871,2.324-2.037
	l21.384-161.995C190.884,78.022,190.847,77.656,190.729,77.313z M154.271,105.76c0,1.21-0.981,2.193-2.193,2.193h-14.818v34.758
	c0,1.211-0.982,2.193-2.193,2.193h-14.133c-1.211,0-2.193-0.981-2.193-2.193v-34.758h-14.818c-1.211,0-2.193-0.982-2.193-2.193
	V91.627c0-1.211,0.982-2.193,2.193-2.193h14.818v-13.98c0-1.211,0.982-2.193,2.193-2.193h14.133c1.211,0,2.193,0.981,2.193,2.193
	v13.98h14.818c1.212,0,2.193,0.981,2.193,2.193V105.76z"/>
</svg>
