<?xml version="1.0" encoding="iso-8859-1"?>
<!-- Generator: Adobe Illustrator 16.0.0, SVG Export Plug-In . SVG Version: 6.00 Build 0)  -->
<!DOCTYPE svg PUBLIC "-//W3C//DTD SVG 1.1//EN" "http://www.w3.org/Graphics/SVG/1.1/DTD/svg11.dtd">
<svg version="1.1" id="Capa_1" xmlns="http://www.w3.org/2000/svg" xmlns:xlink="http://www.w3.org/1999/xlink" x="0px" y="0px"
	 width="100%" height="100%" viewBox="0 0 28.641 26.775" enable-background="new 0 0 28.641 26.775" style="-webkit-transform: rotate(52deg)"
	 xml:space="preserve">
<path d="M9.84,0.38l8.257,9.98c0,0,1.254,1.185-0.107,1.185s-4.655,0-4.655,0s0,0.797,0,2.026c0,3.509,0,9.9,0,12.497
	c0,0,0.188,0.705-0.885,0.705c-1.076,0-5.781,0-6.548,0c-0.768,0-0.747-0.588-0.747-0.588c0-2.531,0-9.133,0-12.53
	c0-1.1,0-1.817,0-1.817s-2.64,0-4.296,0c-1.656,0-0.409-1.237-0.409-1.237S7.476,1.275,8.455,0.296C9.164-0.415,9.84,0.38,9.84,0.38
	z"/>
<path d="M18.802,26.398l-8.259-9.978c0,0-1.25-1.188,0.109-1.188s4.65,0,4.65,0s0-0.802,0-2.027c0-3.511,0-9.899,0-12.498
	c0,0-0.181-0.708,0.89-0.708c1.074,0,5.781,0,6.546,0c0.768,0,0.747,0.592,0.747,0.592c0,2.528,0,9.136,0,12.526
	c0,1.101,0,1.819,0,1.819s2.641,0,4.298,0c1.654,0,0.406,1.238,0.406,1.238s-7.022,9.321-7.999,10.302
	C19.479,27.191,18.802,26.398,18.802,26.398z"/>
</svg>
