<?xml version="1.0" encoding="utf-8"?>
<!-- Generator: Adobe Illustrator 16.0.0, SVG Export Plug-In . SVG Version: 6.00 Build 0)  -->
<!DOCTYPE svg PUBLIC "-//W3C//DTD SVG 1.1//EN" "http://www.w3.org/Graphics/SVG/1.1/DTD/svg11.dtd">
<svg version="1.1" id="Capa_1" xmlns="http://www.w3.org/2000/svg" xmlns:xlink="http://www.w3.org/1999/xlink" x="0px" y="0px"
	 width="100%" height="100%" viewBox="0 0 512 512" enable-background="new 0 0 512 512" xml:space="preserve">
<g>
	<path d="M238.805,111.805H49.697c-9.599,0-10.079,5.432-9.558,12.07l8.604,109.187c0.521,6.64,1.875,12.072,11.459,12.072h168.094
		c9.775,0,10.934-5.433,11.455-12.07l8.604-109.187C248.88,117.236,248.403,111.805,238.805,111.805z M231.865,85.139
		c-1.157-5.333-6.828-9.697-12.608-9.697h-71.04c-5.778,0-13.855-3.849-17.946-8.552l-6.211-7.134
		c-4.092-4.705-12.168-8.555-17.946-8.555H72.173c-5.778,0-11.028,5.42-11.664,12.048l-3.046,31.587h176.503L231.865,85.139z"/>
</g>
<line fill="none" stroke="#000000" stroke-width="10" stroke-miterlimit="10" x1="259.332" y1="153.167" x2="363.582" y2="153.167"/>
<line fill="none" stroke="#000000" stroke-width="10" stroke-miterlimit="10" x1="363.582" y1="148.167" x2="363.582" y2="245.133"/>
<g>
	<path d="M458.139,329.805H269.03c-9.599,0-10.078,5.432-9.557,12.07l8.604,109.186c0.521,6.641,1.875,12.072,11.46,12.072h168.095
		c9.774,0,10.934-5.432,11.455-12.068l8.604-109.188C468.213,335.236,467.737,329.805,458.139,329.805z M451.198,303.139
		c-1.156-5.332-6.828-9.697-12.607-9.697h-71.039c-5.778,0-13.855-3.849-17.946-8.552l-6.212-7.134
		c-4.092-4.705-12.168-8.555-17.945-8.555h-33.941c-5.777,0-11.027,5.42-11.663,12.047l-3.046,31.588h176.502L451.198,303.139z"/>
</g>
</svg>
