<?xml version="1.0" encoding="UTF-8" standalone="no"?>
<!-- Created with Inkscape (http://www.inkscape.org/) -->

<svg viewBox="0 0 512 512" version="1.1" id="svg5" sodipodi:docname="undock-icon.svg" inkscape:version="1.1.1 (3bf5ae0d25, 2021-09-20)" xmlns:inkscape="http://www.inkscape.org/namespaces/inkscape" xmlns:sodipodi="http://sodipodi.sourceforge.net/DTD/sodipodi-0.dtd" xmlns="http://www.w3.org/2000/svg" xmlns:svg="http://www.w3.org/2000/svg">
  <sodipodi:namedview id="namedview7" pagecolor="#ffffff" bordercolor="#111111" borderopacity="1" inkscape:pageshadow="0" inkscape:pageopacity="0" inkscape:pagecheckerboard="1" inkscape:document-units="px" showgrid="false" showguides="true" inkscape:guide-bbox="true" inkscape:snap-center="true" inkscape:snap-others="true" inkscape:zoom="1.2056723" inkscape:cx="147.22077" inkscape:cy="286.56211" inkscape:window-width="2560" inkscape:window-height="1361" inkscape:window-x="1591" inkscape:window-y="-9" inkscape:window-maximized="1" inkscape:current-layer="layer1">
    <sodipodi:guide position="255.96335,504.00916" orientation="1,0" id="guide1485" />
    <sodipodi:guide position="250.20848,255.92669" orientation="0,-1" id="guide1487" />
    <sodipodi:guide position="37.790085,434.17177" orientation="0,-1" id="guide1823" />
    <sodipodi:guide position="37.790096,77.681641" orientation="0,-1" id="guide1825" />
    <sodipodi:guide position="358.92784,441.62199" orientation="1,0" id="guide1981" />
    <sodipodi:guide position="139.58305,344.26575" orientation="1,0" id="guide2657" />
  </sodipodi:namedview>
  <defs id="defs2" />
  <g inkscape:label="Layer 1" inkscape:groupmode="layer" id="layer1" style="display:inline">
    <path id="rect1401-8" style="fill-rule:evenodd;stroke-width:36.2893" d="m 31.791016,77.828125 v 356.490235 h 202.335934 v -356.490235 z m 16.58789,15.136719 h 169.160154 v 292.210936 h -169.160154 z m 85.205074,299.179686 c 9.47257,0.001 17.15135,7.67978 17.15235,17.15235 7e-5,9.47333 -7.67902,17.15329 -17.15235,17.15429 -9.47408,7e-5 -17.15436,-7.68021 -17.15429,-17.15429 0.001,-9.47333 7.68096,-17.15242 17.15429,-17.15235 z m -43.898433,7.15235 c -5.948488,0 -10.791016,4.84252 -10.791016,10.79101 0,5.94849 4.842528,10.79102 10.791016,10.79102 5.948493,0 10.791013,-4.84253 10.791013,-10.79102 0,-5.94849 -4.84252,-10.79103 -10.791013,-10.79101 z m 89.162113,0.20703 c -5.94848,0 -10.79102,4.84253 -10.79102,10.79101 0,5.94849 4.84254,10.79102 10.79102,10.79102 5.94849,0 10.79101,-4.84253 10.79101,-10.79102 0,-5.94848 -4.84252,-10.79101 -10.79101,-10.79101 z m -51.28723,-0.56954 14.85474,10.36251 -14.85474,10.51997 z m -43.269414,5.75704 h 2.697265 v 10.79101 h -2.697265 z m 10.791014,0 v 10.79101 l -6.744139,-5.39453 z m 78.37109,0.20703 6.74415,5.39648 -6.74415,5.39453 z m 8.09376,0 h 2.69726 v 10.79101 h -2.69726 z" sodipodi:nodetypes="cccccccccccccccsssssssssscccccccccccccccccccccc" />
    <path id="rect1403" style="font-variation-settings:normal;opacity:1;vector-effect:none;fill-opacity:1;fill-rule:evenodd;stroke-width:67.2421;stroke-linecap:butt;stroke-linejoin:miter;stroke-miterlimit:4;stroke-dasharray:none;stroke-dashoffset:0;stroke-opacity:1;-inkscape-stroke:none;stop-color:#000000;stop-opacity:1" d="m 265.80078,77.828125 v 117.042965 h 218.3457 v -117.042965 z m 13.79492,12.019531 h 190.75586 v 93.005864 h -190.75586 z" />
    <path id="rect1403-7" style="fill-rule:evenodd;stroke-width:61.3111" d="m 265.80078,216.01367 v 218.30469 h 97.32422 v -218.30469 z m 11.43555,9.97071 h 74.45312 v 198.36328 h -74.45312 z" />
    <path id="rect1403-7-6" style="fill-rule:evenodd;stroke-width:61.3111" d="m 386.58398,216.01367 v 218.30469 h 97.32618 v -218.30469 z m 11.4375,9.97071 h 74.45313 v 198.36328 h -74.45313 z" />
    <path d="m 70.694154,467.32088 h 41.169976 v 41.16997 h -41.169976 z" fill="none" id="path2537" style="stroke-width:1.71542" />
    <g id="path4981" transform="translate(-6)">
      <path style="color:#000000;stroke-width:11.6621;-inkscape-stroke:none" d="m 70.313227,112.60244 138.547783,0.14672" id="path6898" />
      <path style="color:#000000;-inkscape-stroke:none" d="m 70.320312,106.77148 -0.01367,11.66211 138.548828,0.14649 0.0117,-11.66211 z" id="path6900" />
    </g>
    <g id="path4981-5" transform="translate(-6)">
      <path style="color:#000000;stroke-width:11.6621;-inkscape-stroke:none" d="m 70.31323,140.45154 138.54778,0.14673" id="path6892" />
      <path style="color:#000000;-inkscape-stroke:none" d="m 70.320312,134.62109 -0.01367,11.66211 138.548828,0.14649 0.0117,-11.66211 z" id="path6894" />
    </g>
    <g id="path4981-5-6" transform="translate(-6)">
      <path style="color:#000000;stroke-width:11.6621;-inkscape-stroke:none" d="m 70.31323,168.30065 138.54778,0.14672" id="path6886" />
      <path style="color:#000000;-inkscape-stroke:none" d="m 70.320312,162.46875 -0.01367,11.66211 138.548828,0.14844 0.0117,-11.66211 z" id="path6888" />
    </g>
    <g id="path4981-5-3" transform="translate(-6)">
      <path style="color:#000000;stroke-width:11.6621;-inkscape-stroke:none" d="m 70.313228,196.14975 138.547782,0.14673" id="path6880" />
      <path style="color:#000000;-inkscape-stroke:none" d="m 70.320312,190.31836 -0.01367,11.66211 138.548828,0.14648 0.0117,-11.66211 z" id="path6882" />
    </g>
    <g id="path4981-7" transform="translate(-6)">
      <path style="color:#000000;stroke-width:11.2441;-inkscape-stroke:none" d="m 301.87564,112.90543 157.64963,0.13782" id="path6874" />
      <path style="color:#000000;-inkscape-stroke:none" d="m 301.88086,107.2832 -0.01,11.24414 157.64844,0.13868 0.01,-11.24414 z" id="path6876" />
    </g>
    <g id="path4981-5-1" transform="translate(-6)">
      <path style="color:#000000;stroke-width:11.2441;-inkscape-stroke:none" d="m 301.87564,139.06481 157.64963,0.13783" id="path6868" />
      <path style="color:#000000;-inkscape-stroke:none" d="m 301.88086,133.44336 -0.01,11.24414 157.64844,0.13672 0.01,-11.24414 z" id="path6870" />
    </g>
    <g id="path4981-5-6-5" transform="translate(-6)">
      <path style="color:#000000;stroke-width:11.2441;-inkscape-stroke:none" d="m 301.87564,165.2242 157.64963,0.13782" id="path6862" />
      <path style="color:#000000;-inkscape-stroke:none" d="m 301.88086,159.60156 -0.01,11.24414 157.64844,0.13867 0.01,-11.24414 z" id="path6864" />
    </g>
    <g id="path4981-5-6-2" transform="translate(-6)">
      <path style="color:#000000;stroke-width:11.6621;-inkscape-stroke:none" d="m 70.313228,223.99886 138.547782,0.14672" id="path6856" />
      <path style="color:#000000;-inkscape-stroke:none" d="m 70.320312,218.16797 -0.01367,11.66211 138.548828,0.14648 0.0117,-11.66211 z" id="path6858" />
    </g>
    <g id="path4981-5-5" transform="translate(-6)">
      <path style="color:#000000;stroke-width:11.6621;-inkscape-stroke:none" d="m 70.313228,251.84797 138.547782,0.14672" id="path6850" />
      <path style="color:#000000;-inkscape-stroke:none" d="m 70.320312,246.01758 -0.01367,11.66211 138.548828,0.14648 0.0117,-11.66211 z" id="path6852" />
    </g>
    <g id="path4981-5-6-1" transform="translate(-6)">
      <path style="color:#000000;stroke-width:11.6621;-inkscape-stroke:none" d="m 70.313228,279.69707 138.547782,0.14673" id="path6844" />
      <path style="color:#000000;-inkscape-stroke:none" d="m 70.320312,273.86523 -0.01367,11.66211 138.548828,0.14844 0.0117,-11.66211 z" id="path6846" />
    </g>
    <g id="path4981-5-3-7" transform="translate(-6)">
      <path style="color:#000000;stroke-width:11.6621;-inkscape-stroke:none" d="m 70.313226,307.54618 138.547784,0.14672" id="path6838" />
      <path style="color:#000000;-inkscape-stroke:none" d="m 70.320312,301.71484 -0.01367,11.66211 138.548828,0.14649 0.0117,-11.66211 z" id="path6840" />
    </g>
    <g id="path4981-5-6-2-9" transform="translate(-6)">
      <path style="color:#000000;stroke-width:11.6621;-inkscape-stroke:none" d="m 70.313226,335.39528 138.547784,0.14673" id="path6832" />
      <path style="color:#000000;-inkscape-stroke:none" d="m 70.320312,329.56445 -0.01367,11.66211 138.548828,0.14649 0.0117,-11.66211 z" id="path6834" />
    </g>
    <g id="path4981-5-6-1-1" transform="translate(-6)">
      <path style="color:#000000;stroke-width:11.6621;-inkscape-stroke:none" d="m 70.313226,335.39528 138.547784,0.14673" id="path6826" />
      <path style="color:#000000;-inkscape-stroke:none" d="m 70.320312,329.56445 -0.01367,11.66211 138.548828,0.14649 0.0117,-11.66211 z" id="path6828" />
    </g>
    <g id="path4981-5-3-7-3" transform="translate(-6)">
      <path style="color:#000000;stroke-width:11.6621;-inkscape-stroke:none" d="m 70.313224,363.24439 138.547786,0.14672" id="path6820" />
      <path style="color:#000000;-inkscape-stroke:none" d="m 70.320312,357.41406 -0.01367,11.66211 138.548828,0.14649 0.0117,-11.66211 z" id="path6822" />
    </g>
    <g id="path4981-9" transform="translate(-6)">
      <path style="color:#000000;stroke-width:11.6;-inkscape-stroke:none" d="m 291.90204,265.16215 56.35551,0.1468" id="path6814" />
      <path style="color:#000000;-inkscape-stroke:none" d="m 291.91797,259.36133 -0.0312,11.60156 56.35547,0.14648 0.0312,-11.5996 z" id="path6816" />
    </g>
    <g id="path4981-5-4" transform="translate(-6)">
      <path style="color:#000000;stroke-width:11.6;-inkscape-stroke:none" d="m 291.90204,293.02586 56.35551,0.1468" id="path6808" />
      <path style="color:#000000;-inkscape-stroke:none" d="m 291.91797,287.22656 -0.0312,11.59961 56.35547,0.14649 0.0312,-11.59961 z" id="path6810" />
    </g>
    <g id="path4981-5-6-0" transform="translate(-6)">
      <path style="color:#000000;stroke-width:11.6;-inkscape-stroke:none" d="m 291.90204,320.88957 56.35551,0.14679" id="path6802" />
      <path style="color:#000000;-inkscape-stroke:none" d="m 291.91797,315.08984 -0.0312,11.59961 56.35547,0.14649 0.0312,-11.59961 z" id="path6804" />
    </g>
    <g id="path4981-5-3-78" transform="translate(-6)">
      <path style="color:#000000;stroke-width:11.6;-inkscape-stroke:none" d="m 291.90204,348.75327 56.35551,0.14681" id="path6796" />
      <path style="color:#000000;-inkscape-stroke:none" d="m 291.91797,342.95312 -0.0312,11.59961 56.35547,0.14649 0.0312,-11.59961 z" id="path6798" />
    </g>
    <g id="path4981-5-6-2-2" transform="translate(-6)">
      <path style="color:#000000;stroke-width:11.6;-inkscape-stroke:none" d="m 291.90204,376.61698 56.35551,0.1468" id="path6790" />
      <path style="color:#000000;-inkscape-stroke:none" d="m 291.91797,370.81641 -0.0312,11.59961 56.35547,0.14843 0.0312,-11.60156 z" id="path6792" />
    </g>
    <g id="path4981-5-5-6" transform="translate(-6)">
      <path style="color:#000000;stroke-width:11.6;-inkscape-stroke:none" d="m 291.90204,404.48069 56.35551,0.1468" id="path6784" />
      <path style="color:#000000;-inkscape-stroke:none" d="m 291.91797,398.68164 -0.0312,11.59961 56.35547,0.14648 0.0312,-11.59961 z" id="path6786" />
    </g>
    <g id="path4981-9-6" transform="translate(-6)">
      <path style="color:#000000;stroke-width:11.6;-inkscape-stroke:none" d="m 412.9963,265.16215 56.35551,0.1468" id="path6778" />
      <path style="color:#000000;-inkscape-stroke:none" d="m 413.01172,259.36133 -0.0312,11.60156 56.35547,0.14648 0.0312,-11.5996 z" id="path6780" />
    </g>
    <g id="path4981-5-4-9" transform="translate(-6)">
      <path style="color:#000000;stroke-width:11.6;-inkscape-stroke:none" d="m 412.9963,293.02586 56.35551,0.1468" id="path6772" />
      <path style="color:#000000;-inkscape-stroke:none" d="m 413.01172,287.22656 -0.0312,11.59961 56.35547,0.14649 0.0312,-11.59961 z" id="path6774" />
    </g>
    <g id="path4981-5-6-0-6" transform="translate(-6)">
      <path style="color:#000000;stroke-width:11.6;-inkscape-stroke:none" d="m 412.9963,320.88957 56.35551,0.14679" id="path6766" />
      <path style="color:#000000;-inkscape-stroke:none" d="m 413.01172,315.08984 -0.0312,11.59961 56.35547,0.14649 0.0312,-11.59961 z" id="path6768" />
    </g>
    <g id="path4981-5-3-78-7" transform="translate(-6)">
      <path style="color:#000000;stroke-width:11.6;-inkscape-stroke:none" d="m 412.9963,348.75327 56.35551,0.14681" id="path6760" />
      <path style="color:#000000;-inkscape-stroke:none" d="m 413.01172,342.95312 -0.0312,11.59961 56.35547,0.14649 0.0312,-11.59961 z" id="path6762" />
    </g>
    <g id="path4981-5-6-2-2-7" transform="translate(-6)">
      <path style="color:#000000;stroke-width:11.6;-inkscape-stroke:none" d="m 412.9963,376.61698 56.35551,0.1468" id="path6754" />
      <path style="color:#000000;-inkscape-stroke:none" d="m 413.01172,370.81641 -0.0312,11.59961 56.35547,0.14843 0.0312,-11.60156 z" id="path6756" />
    </g>
    <g id="path4981-5-5-6-6" transform="translate(-6)">
      <path style="color:#000000;stroke-width:11.6;-inkscape-stroke:none" d="m 412.9963,404.48069 56.35551,0.1468" id="path6748" />
      <path style="color:#000000;-inkscape-stroke:none" d="m 413.01172,398.68164 -0.0312,11.59961 56.35547,0.14648 0.0312,-11.59961 z" id="path6750" />
    </g>
  </g>
</svg>
